<svg width="44" height="44" viewBox="0 0 44 44" fill="none" xmlns="http://www.w3.org/2000/svg">
<g clip-path="url(#clip0_37032_30633)">
<path d="M22 44C34.1503 44 44 34.1503 44 22C44 9.84974 34.1503 0 22 0C9.84974 0 0 9.84974 0 22C0 34.1503 9.84974 44 22 44Z" fill="#F0F0F0"/>
<path d="M43.9999 21.9984C43.9999 12.5392 38.0296 4.47524 29.652 1.36679V42.6301C38.0296 39.5216 43.9999 31.4576 43.9999 21.9984Z" fill="#D80027"/>
<path d="M-0.000244141 21.9994C-0.000244141 31.4586 5.97001 39.5226 14.3476 42.631V1.3678C5.97001 4.47624 -0.000244141 12.5402 -0.000244141 21.9994Z" fill="#6DA544"/>
</g>
<defs>
<clipPath id="clip0_37032_30633">
<rect width="44" height="44" fill="white"/>
</clipPath>
</defs>
</svg>
